<?xml version="1.0" standalone="no"?>
<!DOCTYPE svg PUBLIC "-//W3C//DTD SVG 20010904//EN"
 "http://www.w3.org/TR/2001/REC-SVG-20010904/DTD/svg10.dtd">
<svg version="1.0" xmlns="http://www.w3.org/2000/svg"
 width="512.000000pt" height="512.000000pt" viewBox="0 0 512.000000 512.000000"
 preserveAspectRatio="xMidYMid meet">
<metadata>
Created by potrace 1.14, written by Peter Selinger 2001-2017
</metadata>
<g transform="translate(0.000000,512.000000) scale(0.100000,-0.100000)"
fill="#000000" stroke="none">
<path d="M1719 4741 c-27 -27 -29 -35 -29 -106 0 -85 45 -402 62 -440 15 -34
71 -35 92 -2 27 43 71 426 56 492 -12 56 -49 85 -106 85 -37 0 -51 -6 -75 -29z"/>
<path d="M2457 4759 c-38 -22 -50 -67 -43 -164 9 -128 52 -393 66 -410 19 -22
77 -19 90 5 11 21 60 386 60 451 0 53 -24 103 -56 118 -31 14 -93 14 -117 0z"/>
<path d="M3159 4741 c-27 -28 -29 -35 -29 -108 0 -97 37 -387 55 -430 12 -28
19 -33 48 -33 19 0 40 6 46 14 16 19 61 345 61 444 0 79 -2 85 -29 113 -24 24
-38 29 -76 29 -38 0 -52 -5 -76 -29z"/>
<path d="M1112 4050 c-18 -11 -41 -34 -52 -52 -20 -33 -20 -54 -20 -1431 0
-1567 -6 -1443 73 -1495 l41 -27 1315 -3 c882 -2 1332 1 1365 8 63 14 104 44
127 94 18 39 19 97 19 1421 l0 1381 -22 44 c-45 87 86 80 -1453 80 -1339 0
-1360 0 -1393 -20z m2648 -1495 l0 -1295 -1249 0 -1249 0 -6 23 c-8 30 -8
2552 1 2560 3 4 568 7 1255 7 l1248 0 0 -1295z"/>
<path d="M1427 3656 c-8 -20 -8 -1750 0 -2008 l6 -208 1078 0 1079 0 0 1115 0
1115 -1079 0 c-925 0 -1080 -2 -1084 -14z m513 -291 l0 -185 -190 0 -190 0 0
185 0 185 190 0 190 0 0 -185z m270 105 l0 -80 -85 0 -85 0 0 80 0 80 85 0 85
0 0 -80z m1270 -265 l0 -85 -145 0 -145 0 0 79 c0 94 -13 88 168 90 l122 1 0
-85z m-1266 -121 c11 -28 6 -150 -6 -162 -7 -7 -37 -12 -69 -12 l-56 0 -7 46
c-8 64 -8 88 4 118 9 24 14 26 69 26 44 0 60 -4 65 -16z m-240 -26 c7 -30 7
-97 0 -126 -6 -22 -7 -22 -178 -20 l-171 3 -3 83 -3 82 174 0 c173 0 175 0
181 -22z m1090 -84 c3 -9 6 -47 6 -85 0 -65 -2 -70 -26 -79 -36 -14 -177 -13
-192 2 -13 13 -17 159 -5 171 3 4 52 7 109 7 84 0 103 -3 108 -16z m-1127
-164 l124 0 -3 -82 -3 -83 -75 -3 c-41 -2 -90 0 -109 3 -33 6 -33 7 -12 21 17
13 21 25 21 75 l0 59 -34 0 c-34 0 -35 -2 -42 -46 -4 -28 -2 -55 5 -71 7 -14
9 -28 6 -31 -3 -3 -59 -8 -125 -10 l-120 -4 0 92 0 93 122 -6 c66 -4 177 -7
245 -7z m433 -345 l0 -75 -60 0 -60 0 0 75 0 75 60 0 60 0 0 -75z m1095 -125
l0 -195 -152 -3 -153 -3 0 201 0 201 153 -3 152 -3 0 -195z m-1327 123 l-3
-68 -95 0 -95 0 -3 54 c-5 82 -6 81 103 81 l96 0 -3 -67z m632 -228 l0 -85
-130 0 -130 0 0 79 c0 93 -11 87 158 90 l102 1 0 -85z m258 76 c7 -4 15 -21
17 -37 2 -16 4 -33 5 -39 1 -5 6 1 10 15 7 21 8 18 9 -18 1 -26 -3 -41 -9 -37
-5 3 -10 1 -10 -5 0 -6 -4 -8 -10 -5 -6 3 -7 -1 -4 -9 3 -9 10 -13 15 -10 5 3
9 0 9 -5 0 -7 -38 -11 -105 -11 l-105 0 0 79 c0 75 1 80 23 84 40 8 142 7 155
-2z m29 -23 c-3 -8 -6 -5 -6 6 -1 11 2 17 5 13 3 -3 4 -12 1 -19z m-612 -228
c9 -18 15 -56 15 -105 0 -67 -3 -79 -25 -100 -29 -30 -35 -31 -69 -4 -24 19
-26 26 -26 100 0 100 17 139 60 139 23 0 33 -7 45 -30z m-653 -295 l68 -7 0
-67 c0 -36 -5 -73 -10 -81 -7 -12 -35 -15 -147 -15 l-138 0 -3 55 c-2 30 -1
69 2 85 6 30 6 30 83 33 42 2 107 1 145 -3z m488 -85 l0 -90 -165 0 -165 0 0
83 c0 46 3 87 7 90 3 4 78 7 165 7 l158 0 0 -90z"/>
<path d="M4560 3443 c-70 -12 -427 -96 -443 -105 -23 -12 -37 -49 -30 -77 3
-14 18 -24 42 -30 45 -12 478 -26 515 -17 37 9 66 61 66 119 0 57 -20 92 -62
106 -31 11 -43 12 -88 4z"/>
<path d="M336 3409 c-54 -64 -22 -185 53 -200 46 -10 493 16 519 30 28 15 37
58 17 87 -8 13 -18 24 -22 24 -3 0 -102 20 -220 45 -117 25 -238 45 -267 45
-48 0 -57 -3 -80 -31z"/>
<path d="M354 2656 c-32 -23 -47 -70 -41 -123 7 -62 40 -93 101 -93 40 0 431
53 484 65 28 7 47 45 38 79 -8 33 -36 40 -241 61 -261 27 -317 29 -341 11z"/>
<path d="M4323 2644 c-229 -30 -233 -32 -233 -84 0 -34 4 -42 25 -50 33 -13
436 -70 491 -70 31 0 51 7 71 24 25 22 28 30 28 89 0 55 -4 69 -24 91 -22 24
-31 26 -100 25 -42 -1 -158 -12 -258 -25z"/>
<path d="M383 1923 c-41 -8 -73 -59 -73 -114 0 -106 45 -137 163 -114 144 28
413 97 435 111 23 15 30 57 13 83 -5 8 -40 16 -92 21 -107 10 -417 19 -446 13z"/>
<path d="M4322 1919 c-197 -11 -224 -17 -232 -50 -9 -34 -1 -58 22 -70 36 -19
432 -110 486 -112 49 -2 56 1 83 31 25 27 29 41 29 87 0 46 -5 60 -28 87 -28
30 -32 32 -113 34 -46 1 -158 -2 -247 -7z"/>
<path d="M1746 948 c-12 -20 -36 -176 -61 -400 -8 -72 8 -131 43 -158 35 -29
113 -24 145 9 20 20 22 31 21 134 -1 139 -39 395 -61 419 -23 26 -69 23 -87
-4z"/>
<path d="M2477 956 c-28 -28 -76 -447 -58 -507 24 -80 111 -105 173 -50 33 29
33 30 32 123 -1 115 -41 395 -60 426 -17 26 -64 30 -87 8z"/>
<path d="M3191 956 c-14 -17 -33 -127 -56 -324 -18 -161 -12 -207 33 -242 39
-31 116 -24 149 14 20 23 23 38 23 107 0 114 -46 418 -66 441 -20 22 -67 24
-83 4z"/>
</g>
</svg>
